<?xml version="1.0" encoding="UTF-8"?>
<svg width="46" height="46" viewBox="0 0 24 24" xmlns="http://www.w3.org/2000/svg" preserveAspectRatio="xMidYMid meet">
  <path fill="none" d="M0 0h24v24H0z"/>
  <path d="M16.365 1.43c-.765.03-1.67.52-2.216 1.09-.48.5-1.128 1.44-.93 2.3 1.05.03 1.974-.6 2.516-1.18.54-.58.945-1.57.63-2.21zM20.5 10.2c-.06-2.22 1.83-3.28 1.92-3.32-1.04-1.52-2.66-1.73-3.23-1.76-1.37-.14-2.66.8-3.35.8-.69 0-1.79-.78-2.96-.76-1.52.02-2.92.89-3.7 2.26-1.58 2.73-.4 6.78 1.12 9.01.74 1.07 1.62 2.3 2.78 2.26 1.12-.04 1.54-.72 2.88-.72 1.34 0 1.72.72 2.95.7 1.26-.02 2.06-1.06 2.78-2.14.88-1.3 1.24-2.56 1.26-2.63-.03-.01-2.38-.91-2.45-3.6z" fill="#111"/>
</svg>
