<?xml version="1.0" encoding="UTF-8"?>
<svg width="46" height="46" viewBox="0 0 46 46" xmlns="http://www.w3.org/2000/svg" preserveAspectRatio="xMidYMid meet">
  <defs />
  <g fill="none" fill-rule="evenodd">
    <path d="M23 9.5c3.06 0 5.82 1.05 7.98 2.78l5.94-5.94C33.9 3.02 28.32 1 23 1 14.6 1 7.19 5.9 3.35 12.7l6.9 5.36C12.9 13.02 17.61 9.5 23 9.5z" fill="#EA4335"/>
    <path d="M40.65 20.35c.33 1.78.33 3.5 0 5.28-.5 3.02-2.02 5.66-4.2 7.55l-6.17-4.78c1.48-1.12 2.6-2.86 3.02-4.77H23v-7.28h17.65z" fill="#34A853"/>
    <path d="M9.25 27.6c-1.12-2.08-1.74-4.4-1.74-6.94 0-2.54.62-4.86 1.74-6.94L3.35 8.36C1.19 12.46 0 17.48 0 23c0 5.52 1.19 10.54 3.35 14.64l5.9-5.99z" fill="#FBBC05"/>
    <path d="M23 36.5c-5.39 0-10.1-3.52-12.75-8.36l-5.9 5.99C7.19 40.1 14.6 45 23 45c5.32 0 10.9-2.02 14.92-5.33l-6.94-5.17C28.82 35.55 26.06 36.5 23 36.5z" fill="#4285F4"/>
  </g>
</svg>
